PathFileType	4	(X/Y/Z)	C:\Users\WrightLab\Desktop\Jo\P5V31.trc
DataRate	CameraRate	NumFrames	NumMarkers	Units	OrigDataRate	OrigDataStartFrame	OrigNumFrames
100.00	100.00	       17	19	mm	100.00	794	       907
Frame#	Time	Headset_Front			Headset_Back			Headset_Left			Headset_Right			Left_Shoulder			Right_Shoulder			Sternum			C7			Left Elbow			Right Elbow			Left Wrist			Right Wrist			Left ASIS			Right ASIS			S2			Left Knee			Right Knee			Left Ankle			Right Ankle			
		X1	Y1	Z1	X2	Y2	Z2	X3	Y3	Z3	X4	Y4	Z4	X5	Y5	Z5	X6	Y6	Z6	X7	Y7	Z7	X8	Y8	Z8	X9	Y9	Z9	X10	Y10	Z10	X11	Y11	Z11	X12	Y12	Z12	X13	Y13	Z13	X14	Y14	Z14	X15	Y15	Z15	X16	Y16	Z16	X17	Y17	Z17	X18	Y18	Z18	X19	Y19	Z19	

794	7.930	-69.80643	1606.30640	1373.95813	-272.34317	1553.94299	1059.24451				-210.40695	1660.57471	1358.08850				-363.02997	1481.30017	1267.11389	-152.13654	1350.18225	1236.66248				-22.97083	1312.16284	1175.25610	-455.51563	1228.34827	1314.33862	60.39537	1265.73376	994.60657	-308.08389	1198.07800	1489.97485	-24.01493	965.34924	1176.98438	-287.67474	975.33392	1292.61755	-250.07745	1000.06061	972.03107	-7.70030	559.40063	1282.63416	-387.86444	539.26263	1260.70105	-93.83260	250.38412	1014.91614	-338.41501	122.58865	1195.17810	
795	7.940	-65.34579	1606.23486	1378.30591							-206.59108	1660.10693	1365.52930				-361.11423	1481.91528	1275.64478	-150.19351	1348.66211	1241.41785				-22.26785	1311.54102	1179.30164	-453.71976	1229.99023	1324.27307	59.98352	1265.87268	997.62805	-301.94879	1198.20959	1497.79272	-22.90260	963.90918	1180.21680	-286.43332	975.07764	1299.01086	-249.81371	1000.96655	978.06940	-5.61582	561.63403	1288.66113	-387.59607	538.86298	1264.92725	-92.02959	243.80995	1034.20715	-338.23706	122.69659	1195.26270	
796	7.950	-61.33062	1605.43665	1384.11243	-204.59586	1791.21545	1174.25891				-202.29636	1659.64050	1368.58179				-358.20987	1481.89624	1283.95215	-149.58340	1347.35669	1239.09399				-20.17472	1311.63147	1184.36804	-450.45798	1230.42651	1333.29932	58.75270	1266.08789	1001.85437	-297.43253	1198.88684	1504.10217	-21.06272	964.26770	1184.13110	-285.27667	975.23053	1304.71997	-248.31038	1001.10425	984.73254	-3.01435	563.17450	1294.27820	-387.06793	538.90314	1269.06665	-90.74897	236.77718	1053.00513	-338.03195	123.04111	1195.23218	
797	7.960	-56.64368	1605.45056	1388.83655	-271.43405	1555.27344	1081.94604				-197.84340	1658.94519	1375.66284				-356.44565	1482.49341	1292.33887	-146.94434	1348.37427	1251.25928				-17.98317	1311.68567	1187.93494	-447.02097	1229.85120	1342.33862	57.53584	1266.35938	1004.66998	-291.37311	1198.90198	1511.95752	-21.39869	963.44806	1188.91943	-284.35321	975.48676	1310.31299	-247.17593	1001.48993	989.98676	-0.87987	564.75806	1299.35168	-386.70056	538.44214	1273.55371	-88.15088	229.83192	1072.69604	-337.84189	123.22128	1195.36523	
798	7.970	-52.15679	1605.27942	1394.37952	-13.77968	1543.16870	1078.92590				-193.63603	1659.71643	1383.55054	-269.89630	1555.46301	1089.21289	-353.51126	1482.31946	1300.58521	-145.98140	1346.01831	1249.97070	-200.25346	1791.63867	1188.70923	-16.33817	1310.99341	1192.90649	-443.89136	1230.21313	1351.26135	56.74037	1266.29492	1007.70117	-284.46844	1199.68030	1518.59375	-20.34607	963.15271	1193.47229	-283.63733	975.46777	1316.89294	-245.49403	1001.48920	996.82129	0.43553	566.16559	1305.15210	-385.86295	537.91132	1277.88843	-86.27000	221.43297	1093.03870	-337.61774	123.36909	1195.53687	
799	7.980	-47.81281	1604.71606	1399.95374	-13.08976	1543.34241	1083.90723				-188.46910	1659.16736	1390.39368	-269.63580	1555.89966	1096.74939	-350.59604	1482.54651	1308.65125	-143.27380	1348.86780	1264.16431	-198.24449	1791.86926	1195.81104	-15.76976	1310.75891	1196.86145	-440.38782	1230.29358	1361.28943	55.97539	1266.17456	1011.09650	-279.13654	1198.95874	1524.49902	-18.80033	963.31140	1197.67957	-282.50677	975.47150	1323.04028	-244.28656	1001.72009	1003.33752	1.76323	566.65912	1311.22229	-384.05267	537.14966	1282.05261	-83.58776	212.65381	1113.65100	-337.34659	123.54137	1195.58362	
800	7.990	-42.89165	1604.48486	1404.54883							-183.84647	1659.49817	1395.85315	-267.52600	1555.52502	1103.94861	-348.24805	1482.95020	1316.78857	-141.74167	1348.02100	1269.05579				-13.11790	1310.63123	1201.69312	-436.75177	1230.35669	1370.24548	55.29907	1265.81616	1014.31384	-272.07306	1199.33923	1531.99597	-17.85547	963.86578	1203.25500	-280.73538	975.76984	1329.02026	-242.76653	1001.27039	1009.38916	2.13352	566.87640	1317.73645	-382.58078	536.25134	1286.28906	-80.80979	204.28276	1135.07520	-337.14136	123.70590	1195.78442	
801	8.000	-37.98767	1604.04736	1408.55798	-11.79718	1543.55103	1094.05273				-178.62617	1659.83167	1402.82239	-266.65689	1555.66895	1111.20776	-345.27032	1483.02441	1324.86084	-139.68790	1348.13879	1273.74768	-193.43779	1792.04053	1209.75037	-12.69761	1309.11658	1206.47949	-433.26300	1230.49121	1379.80273	54.64980	1265.09106	1019.45288	-266.47424	1199.89880	1538.98584	-17.67053	962.96106	1208.56213	-279.37448	975.64972	1335.48755	-241.54303	1002.06537	1016.31342	2.06224	567.12720	1323.87219	-380.79272	535.50952	1290.85522	-77.79310	195.73865	1156.29700	-336.88776	123.99081	1195.82825	
802	8.010	-33.19010	1603.53137	1412.58813							-174.09850	1659.24390	1409.86865	-266.01682	1556.18909	1118.53833	-341.87015	1483.12231	1332.81958	-137.79825	1347.76147	1279.23218				-10.60213	1307.96704	1209.63562	-429.10776	1230.24121	1389.10425	54.04153	1264.91492	1022.25970	-260.25327	1199.60364	1545.37830	-18.27099	962.45978	1213.23694	-277.71411	975.58105	1341.40540	-240.55466	1002.37238	1023.36768	2.02906	566.88831	1330.58936	-378.93106	535.28119	1295.19849	-74.82536	187.14108	1178.96301	-336.60602	124.22163	1196.05200	
803	8.020	-28.09143	1603.41602	1416.94751	-9.93395	1542.20337	1102.90393				-169.11575	1659.25769	1416.11462	-263.68124	1556.18140	1125.69482	-338.15039	1482.99768	1340.67834	-134.94426	1348.06104	1285.71155	-188.45842	1792.39026	1223.11292	-9.05936	1307.71545	1213.61963	-425.76147	1231.07300	1397.51721	54.63720	1263.48364	1025.61292	-253.31888	1201.20508	1552.45557	-16.93965	962.05493	1218.15454	-275.22501	975.27979	1347.86829	-240.33153	1002.87567	1031.71497	1.86523	566.12018	1336.21533	-375.73596	534.00024	1299.57251	-71.44574	179.01080	1201.86182	-336.30856	124.39970	1196.25146	
804	8.030	-23.01421	1603.22815	1421.70105	-8.78598	1543.08728	1108.52588				-163.77994	1659.27966	1422.11694	-262.40042	1556.22083	1132.84253	-335.01166	1483.25854	1348.68420	-132.10004	1347.43665	1291.54675	-186.99098	1792.69592	1229.75781	-6.88498	1306.72437	1218.33020	-420.74933	1231.40613	1406.09912	53.22319	1263.89355	1029.52271	-247.59821	1200.11780	1557.35559	-15.61734	962.04034	1222.78467	-272.81467	974.87836	1354.80139	-238.73917	1002.78107	1039.40796	1.13811	565.62775	1341.49329	-373.34680	533.83655	1304.11096	-68.52910	170.23694	1223.83972	-335.85501	124.62308	1196.46399	
805	8.040	-18.11397	1603.31140	1426.03796	-7.42503	1540.99707	1113.08191				-158.80566	1658.94641	1428.74976	-261.48083	1556.31836	1140.03162	-331.79980	1483.55835	1356.56458	-129.98491	1347.23279	1297.06543	-183.12857	1792.47058	1236.06396	-5.14343	1306.54871	1223.23584	-416.02475	1231.09888	1415.54517	52.27289	1264.08984	1032.28430	-239.67303	1200.71362	1565.23352	-13.54358	962.22699	1227.74744	-270.07117	974.84064	1361.19812	-238.06070	1003.02539	1047.85974	0.52329	564.57574	1345.15344	-370.44363	533.05884	1308.86560	-65.16239	163.12204	1247.17480	-335.07483	124.88236	1196.61377	
806	8.050	-13.21359	1602.86169	1429.75867	-6.30557	1541.45203	1116.47559				-153.71339	1659.21326	1432.98987	-259.26517	1556.29919	1147.03333	-328.25061	1483.87805	1364.30811	-127.36718	1347.41968	1302.98083	-180.53169	1792.69568	1242.26038	-2.33085	1305.44312	1227.74207	-411.97202	1231.61304	1423.86548	52.11510	1263.11487	1036.92590	-235.22163	1200.24805	1570.39551	-12.65097	960.63745	1232.53345	-266.74994	974.12207	1366.98499	-237.17369	1003.25684	1055.01379	0.06039	562.82361	1349.60486	-367.14206	532.21088	1313.71667	-62.43627	155.74411	1269.25452	-334.46506	125.05661	1196.89343	
807	8.060	-7.84961	1602.47754	1433.14661	-5.17356	1540.99963	1121.22083				-148.35544	1659.09241	1439.73193	-257.23230	1556.26660	1153.84741	-323.96448	1483.73340	1371.93823	-124.62612	1347.16125	1308.67639	-177.86749	1792.74036	1248.49988	-1.07628	1305.22864	1232.66943	-406.39200	1231.50024	1432.34351	52.91661	1261.19067	1040.62415	-228.49126	1199.92004	1577.10681	-10.37695	962.09717	1239.14551	-263.62494	973.83551	1372.99365	-235.84328	1003.64758	1063.70544	-0.47925	561.70514	1351.52075	-363.68246	531.60870	1318.11328	-59.50983	149.37215	1292.32324	-333.77338	125.20275	1197.16431	
808	8.070	-2.98787	1602.61975	1437.04346	-3.40733	1540.51392	1125.72375				-143.34514	1659.00952	1445.33472	-255.29965	1556.21558	1160.55408	-320.37024	1484.20764	1379.32153	-121.90046	1347.10181	1315.49915	-174.54358	1792.48633	1254.36597	0.33427	1303.74377	1237.22314	-402.54791	1232.08276	1440.63379	52.40916	1260.55298	1044.09265	-222.28911	1200.95520	1582.38953	-7.83720	961.22467	1244.47534	-260.00159	973.39117	1379.37598	-234.57126	1003.52026	1072.99353	-0.48719	559.98761	1352.98706	-360.50278	530.95215	1322.85486	-56.46056	144.14555	1312.41907	-333.33261	125.55785	1197.49658	
809	8.080	1.93689	1602.47888	1441.29834	-1.34196	1540.24597	1130.78992				-138.51082	1659.19617	1450.60974	-253.07137	1555.95996	1167.18726	-315.65497	1483.88208	1386.53625	-119.02011	1347.51233	1321.21826	-171.24634	1792.68323	1259.93835	3.79437	1304.05212	1240.99036	-397.56116	1231.94617	1449.06738	52.09905	1259.49878	1047.68274	-215.52974	1201.20410	1589.72546	-5.29400	961.12622	1249.45874	-256.47986	973.35236	1385.34546	-232.96132	1003.04504	1081.70532	0.04549	557.77594	1354.67932	-356.77676	529.89532	1327.37256	-54.35852	139.29428	1332.91577	-332.66205	125.91222	1197.70129	
810	8.090	7.10491	1602.58667	1444.86035	0.71260	1539.55432	1135.45386				-133.21783	1659.46082	1456.14709	-250.56259	1555.65771	1173.55725	-312.11148	1484.43311	1393.58411	-115.72742	1346.97009	1326.73486	-169.03128	1792.81372	1265.51318	5.81955	1302.83533	1246.30872	-392.68677	1232.59021	1456.38928	52.19027	1258.91418	1052.20801	-210.10123	1202.11804	1595.16357	-2.67148	960.11487	1254.41260	-252.86554	973.07611	1391.32898	-231.50713	1002.62268	1089.96021	-0.03171	555.89203	1355.62073	-353.40305	529.57208	1331.86414	-53.20903	134.19633	1351.61523	-332.09766	126.16611	1198.03040	
